<svg width="28" height="28" viewBox="0 0 28 28" fill="none" xmlns="http://www.w3.org/2000/svg">
<path d="M7.25 9.5H8.75M8.75 9.5H20.75M8.75 9.5V20C8.75 20.3978 8.90804 20.7794 9.18934 21.0607C9.47064 21.342 9.85218 21.5 10.25 21.5H17.75C18.1478 21.5 18.5294 21.342 18.8107 21.0607C19.092 20.7794 19.25 20.3978 19.25 20V9.5H8.75ZM11 9.5V8C11 7.60218 11.158 7.22064 11.4393 6.93934C11.7206 6.65804 12.1022 6.5 12.5 6.5H15.5C15.8978 6.5 16.2794 6.65804 16.5607 6.93934C16.842 7.22064 17 7.60218 17 8V9.5" stroke="#FF6753" stroke-width="1.5" stroke-linecap="round" stroke-linejoin="round"/>
</svg>
