<svg width="28" height="28" viewBox="0 0 28 28" fill="none" xmlns="http://www.w3.org/2000/svg">
<g clip-path="url(#clip0_86_53)">
<path d="M13.25 8.00017H8C7.60218 8.00017 7.22064 8.15821 6.93934 8.43951C6.65804 8.72081 6.5 9.10235 6.5 9.50017V20.0002C6.5 20.398 6.65804 20.7795 6.93934 21.0608C7.22064 21.3421 7.60218 21.5002 8 21.5002H18.5C18.8978 21.5002 19.2794 21.3421 19.5607 21.0608C19.842 20.7795 20 20.398 20 20.0002V14.7502M18.875 6.87517C19.1734 6.5768 19.578 6.40918 20 6.40918C20.422 6.40918 20.8266 6.5768 21.125 6.87517C21.4234 7.17354 21.591 7.57821 21.591 8.00017C21.591 8.42213 21.4234 8.8268 21.125 9.12517L14 16.2502L11 17.0002L11.75 14.0002L18.875 6.87517Z" stroke="#98A2B3" stroke-width="1.5" stroke-linecap="round" stroke-linejoin="round"/>
</g>
<defs>
<clipPath id="clip0_86_53">
<rect width="18" height="18" fill="white" transform="translate(5 5)"/>
</clipPath>
</defs>
</svg>
