<svg width="218" height="57" viewBox="0 0 218 57" fill="none" xmlns="http://www.w3.org/2000/svg">
<path d="M0.5243 44V3.27273H27.4902V10.3722H9.1351V20.0767H25.7004V27.1761H9.1351V44H0.5243ZM30.883 44V13.4545H39.3546V44H30.883ZM35.1387 9.51704C33.8792 9.51704 32.7987 9.09943 31.8972 8.2642C31.009 7.41572 30.5648 6.40151 30.5648 5.22159C30.5648 4.05492 31.009 3.05398 31.8972 2.21875C32.7987 1.37026 33.8792 0.946021 35.1387 0.946021C36.3982 0.946021 37.472 1.37026 38.3603 2.21875C39.2618 3.05398 39.7126 4.05492 39.7126 5.22159C39.7126 6.40151 39.2618 7.41572 38.3603 8.2642C37.472 9.09943 36.3982 9.51704 35.1387 9.51704ZM57.6622 56.0909C54.9179 56.0909 52.5647 55.7131 50.6025 54.9574C48.6537 54.215 47.1025 53.2008 45.9491 51.9148C44.7957 50.6288 44.0467 49.1837 43.702 47.5795L51.5372 46.5256C51.7758 47.1354 52.1537 47.7055 52.6707 48.2358C53.1878 48.7661 53.8705 49.1903 54.719 49.5085C55.5808 49.84 56.6281 50.0057 57.8611 50.0057C59.7039 50.0057 61.2219 49.5549 62.415 48.6534C63.6215 47.7652 64.2247 46.2737 64.2247 44.179V38.5909H63.8667C63.4955 39.4394 62.9387 40.2415 62.1963 40.9972C61.4539 41.7528 60.4993 42.3693 59.3327 42.8466C58.166 43.3239 56.7739 43.5625 55.1565 43.5625C52.863 43.5625 50.7749 43.0322 48.8923 41.9716C47.023 40.8977 45.5315 39.2604 44.4179 37.0597C43.3175 34.8456 42.7673 32.0483 42.7673 28.6676C42.7673 25.2074 43.3308 22.3172 44.4577 19.9972C45.5845 17.6771 47.0827 15.9403 48.952 14.7869C50.8345 13.6335 52.8961 13.0568 55.1366 13.0568C56.8469 13.0568 58.2787 13.3485 59.4321 13.9318C60.5855 14.5019 61.5135 15.2178 62.2162 16.0795C62.9321 16.928 63.4823 17.7633 63.8667 18.5852H64.1849V13.4545H72.5969V44.2983C72.5969 46.8968 71.9605 49.071 70.6878 50.821C69.415 52.571 67.6518 53.8835 65.398 54.7585C63.1575 55.6468 60.5789 56.0909 57.6622 56.0909ZM57.8412 37.1989C59.2067 37.1989 60.3601 36.8608 61.3014 36.1847C62.2559 35.4953 62.9851 34.5142 63.4889 33.2415C64.0059 31.9555 64.2645 30.4176 64.2645 28.6278C64.2645 26.8381 64.0126 25.2869 63.5088 23.9744C63.005 22.6487 62.2758 21.6212 61.3213 20.892C60.3667 20.1629 59.2067 19.7983 57.8412 19.7983C56.4491 19.7983 55.2758 20.1761 54.3213 20.9318C53.3667 21.6742 52.6442 22.7083 52.1537 24.0341C51.6631 25.3598 51.4179 26.8911 51.4179 28.6278C51.4179 30.3911 51.6631 31.9157 52.1537 33.2017C52.6575 34.4744 53.38 35.4621 54.3213 36.1648C55.2758 36.8542 56.4491 37.1989 57.8412 37.1989Z" fill="#DC1A01"/>
<path d="M77.2574 44V3.27273H104.223V10.3722H85.8682V20.0767H102.434V27.1761H85.8682V44H77.2574ZM119.175 44.5966C116.086 44.5966 113.415 43.9403 111.161 42.6278C108.92 41.3021 107.19 39.4593 105.971 37.0994C104.751 34.7263 104.141 31.9754 104.141 28.8466C104.141 25.6913 104.751 22.9337 105.971 20.5739C107.19 18.2008 108.92 16.358 111.161 15.0455C113.415 13.7197 116.086 13.0568 119.175 13.0568C122.264 13.0568 124.929 13.7197 127.169 15.0455C129.423 16.358 131.16 18.2008 132.38 20.5739C133.599 22.9337 134.209 25.6913 134.209 28.8466C134.209 31.9754 133.599 34.7263 132.38 37.0994C131.16 39.4593 129.423 41.3021 127.169 42.6278C124.929 43.9403 122.264 44.5966 119.175 44.5966ZM119.215 38.0341C120.62 38.0341 121.793 37.6364 122.735 36.8409C123.676 36.0322 124.385 34.9318 124.863 33.5398C125.353 32.1477 125.598 30.5634 125.598 28.7869C125.598 27.0104 125.353 25.4261 124.863 24.0341C124.385 22.642 123.676 21.5417 122.735 20.733C121.793 19.9242 120.62 19.5199 119.215 19.5199C117.796 19.5199 116.603 19.9242 115.635 20.733C114.681 21.5417 113.958 22.642 113.468 24.0341C112.99 25.4261 112.752 27.0104 112.752 28.7869C112.752 30.5634 112.99 32.1477 113.468 33.5398C113.958 34.9318 114.681 36.0322 115.635 36.8409C116.603 37.6364 117.796 38.0341 119.215 38.0341ZM137.478 44V13.4545H145.691V18.7841H146.009C146.566 16.8883 147.5 15.4564 148.813 14.4886C150.125 13.5076 151.637 13.017 153.347 13.017C153.771 13.017 154.229 13.0436 154.719 13.0966C155.21 13.1496 155.641 13.2225 156.012 13.3153V20.8324C155.614 20.7131 155.064 20.607 154.361 20.5142C153.659 20.4214 153.016 20.375 152.432 20.375C151.186 20.375 150.072 20.6468 149.091 21.1903C148.124 21.7206 147.355 22.4631 146.785 23.4176C146.228 24.3722 145.949 25.4725 145.949 26.7188V44H137.478ZM170.491 56.0909C167.747 56.0909 165.394 55.7131 163.432 54.9574C161.483 54.215 159.932 53.2008 158.778 51.9148C157.625 50.6288 156.876 49.1837 156.531 47.5795L164.366 46.5256C164.605 47.1354 164.983 47.7055 165.5 48.2358C166.017 48.7661 166.7 49.1903 167.548 49.5085C168.41 49.84 169.457 50.0057 170.69 50.0057C172.533 50.0057 174.051 49.5549 175.244 48.6534C176.451 47.7652 177.054 46.2737 177.054 44.179V38.5909H176.696C176.325 39.4394 175.768 40.2415 175.025 40.9972C174.283 41.7528 173.328 42.3693 172.162 42.8466C170.995 43.3239 169.603 43.5625 167.986 43.5625C165.692 43.5625 163.604 43.0322 161.721 41.9716C159.852 40.8977 158.361 39.2604 157.247 37.0597C156.147 34.8456 155.596 32.0483 155.596 28.6676C155.596 25.2074 156.16 22.3172 157.287 19.9972C158.414 17.6771 159.912 15.9403 161.781 14.7869C163.664 13.6335 165.725 13.0568 167.966 13.0568C169.676 13.0568 171.108 13.3485 172.261 13.9318C173.415 14.5019 174.343 15.2178 175.045 16.0795C175.761 16.928 176.311 17.7633 176.696 18.5852H177.014V13.4545H185.426V44.2983C185.426 46.8968 184.79 49.071 183.517 50.821C182.244 52.571 180.481 53.8835 178.227 54.7585C175.987 55.6468 173.408 56.0909 170.491 56.0909ZM170.67 37.1989C172.036 37.1989 173.189 36.8608 174.13 36.1847C175.085 35.4953 175.814 34.5142 176.318 33.2415C176.835 31.9555 177.094 30.4176 177.094 28.6278C177.094 26.8381 176.842 25.2869 176.338 23.9744C175.834 22.6487 175.105 21.6212 174.15 20.892C173.196 20.1629 172.036 19.7983 170.67 19.7983C169.278 19.7983 168.105 20.1761 167.15 20.9318C166.196 21.6742 165.473 22.7083 164.983 24.0341C164.492 25.3598 164.247 26.8911 164.247 28.6278C164.247 30.3911 164.492 31.9157 164.983 33.2017C165.487 34.4744 166.209 35.4621 167.15 36.1648C168.105 36.8542 169.278 37.1989 170.67 37.1989ZM203.848 44.5966C200.706 44.5966 198.001 43.9602 195.734 42.6875C193.48 41.4015 191.744 39.5852 190.524 37.2386C189.304 34.8788 188.694 32.0881 188.694 28.8665C188.694 25.7244 189.304 22.9669 190.524 20.5938C191.744 18.2206 193.461 16.3712 195.675 15.0455C197.902 13.7197 200.514 13.0568 203.51 13.0568C205.525 13.0568 207.401 13.3816 209.138 14.0312C210.888 14.6676 212.412 15.6288 213.711 16.9148C215.024 18.2008 216.045 19.8182 216.774 21.767C217.503 23.7027 217.868 25.9697 217.868 28.5682V30.8949H192.075V25.6449H209.893C209.893 24.4252 209.628 23.3447 209.098 22.4034C208.568 21.4621 207.832 20.7263 206.89 20.196C205.962 19.6525 204.882 19.3807 203.649 19.3807C202.363 19.3807 201.223 19.679 200.229 20.2756C199.247 20.8589 198.479 21.6477 197.922 22.642C197.365 23.6231 197.08 24.7169 197.067 25.9233V30.9148C197.067 32.4261 197.345 33.732 197.902 34.8324C198.472 35.9328 199.274 36.7812 200.308 37.3778C201.342 37.9744 202.569 38.2727 203.987 38.2727C204.928 38.2727 205.79 38.1402 206.572 37.875C207.354 37.6098 208.024 37.2121 208.581 36.6818C209.138 36.1515 209.562 35.5019 209.854 34.733L217.689 35.25C217.291 37.1326 216.476 38.7765 215.243 40.1818C214.023 41.5739 212.445 42.661 210.51 43.4432C208.587 44.2121 206.367 44.5966 203.848 44.5966Z" fill="white"/>
</svg>
